<?xml version="1.0" encoding="utf-8"?>
<svg enable-background="new 0 0 3000 626" id="Layer_1" version="1.1" viewBox="0 0 3000 626" width="100%" x="0px" xml:space="preserve" xmlns="http://www.w3.org/2000/svg" xmlns:xlink="http://www.w3.org/1999/xlink" y="0px">
<path d=" M2228.000000,627.000000   C1485.333374,627.000000 743.166687,627.000000 1.000000,627.000000   C1.000000,418.333344 1.000000,209.666672 1.000000,1.000000   C1001.000000,1.000000 2001.000000,1.000000 3001.000000,1.000000   C3001.000000,209.666672 3001.000000,418.333344 3001.000000,627.000000   C2743.500000,627.000000 2486.000000,627.000000 2228.000000,627.000000  M640.630615,481.067749   C645.471008,469.251526 648.157104,457.077728 648.141785,444.190491   C648.030579,350.535706 648.049683,256.880737 648.137512,163.225906   C648.147461,152.632416 646.537903,142.448715 643.405212,132.329895   C631.363586,93.434090 592.547363,64.098526 551.846130,64.039742   C449.859222,63.892460 347.871948,63.971054 245.884827,64.018463   C241.749329,64.020386 237.592377,64.455048 233.482101,64.976974   C185.846664,71.025810 148.016281,113.925247 148.006104,161.913086   C147.986404,254.901413 147.957275,347.889801 148.084534,440.877930   C148.094254,447.979462 148.796967,455.170593 150.045380,462.165192   C158.016449,506.825439 199.918304,541.958313 245.177094,541.984985   C346.164368,542.044556 447.151733,542.022400 548.139038,541.972778   C552.941711,541.970398 557.795837,541.726685 562.538452,541.013306   C599.260742,535.489319 624.782288,515.169128 640.630615,481.067749  M1941.831787,338.208618   C1945.297485,323.082214 1947.283691,307.798187 1947.230957,292.241516   C1947.218872,288.687775 1946.111694,287.670990 1942.665894,287.727722   C1931.835571,287.906036 1920.997925,287.925507 1910.168579,287.719940   C1906.515137,287.650635 1905.861084,289.080872 1905.743042,292.396454   C1905.364990,303.021973 1905.046021,313.687775 1903.797241,324.230591   C1902.974976,331.173157 1900.589722,337.930573 1898.911987,344.740021   C1897.575073,344.423584 1897.357422,344.440002 1897.285522,344.345428   C1881.771606,323.954376 1866.219360,303.591980 1850.825073,283.110840   C1848.904907,280.556000 1849.030518,277.842743 1852.816406,276.445831   C1855.463989,275.468964 1857.999756,274.176910 1860.553101,272.957886   C1871.142700,267.902130 1881.012817,261.762238 1888.947876,252.985504   C1901.243164,239.386261 1906.057861,223.455185 1904.224976,205.160736   C1902.383057,186.774933 1893.688110,172.840134 1877.521606,164.457016   C1851.689819,151.061951 1824.809937,151.288055 1798.454468,162.471817   C1772.564819,173.457993 1759.802368,199.910751 1764.508057,227.646759   C1766.967407,242.142166 1773.814087,254.194870 1782.271118,265.658783   C1787.752563,273.089111 1787.738159,273.192291 1779.673828,276.966156   C1766.364502,283.194305 1754.562744,291.494690 1745.834595,303.491241   C1735.760498,317.337524 1733.422241,333.208740 1733.922974,349.943512   C1734.791260,378.957977 1753.223999,405.314941 1780.153809,416.015228   C1801.250366,424.397736 1823.041748,426.277313 1845.318115,423.805481   C1861.221069,422.040863 1876.303223,417.659698 1889.211426,407.569977   C1892.044800,405.355133 1894.787842,405.131683 1897.648071,407.900818   C1911.683228,421.488129 1928.938843,424.708862 1947.571045,422.832794   C1951.299683,422.457367 1955.010254,421.080170 1958.498413,419.615448   C1959.606934,419.149994 1960.739868,416.790466 1960.547974,415.491638   C1959.141602,405.967255 1957.285522,396.510040 1955.816895,386.993683   C1955.121948,382.490967 1953.241333,381.535461 1948.737061,382.475677   C1940.533447,384.188110 1932.523560,383.602600 1927.182861,377.925598   C1932.162720,364.448914 1936.865479,351.722046 1941.831787,338.208618  M2211.731445,244.923737   C2209.917480,248.465454 2208.413574,247.544571 2206.107422,245.047882   C2200.958740,239.473907 2196.237793,232.869354 2189.897949,229.144073   C2165.898926,215.043167 2140.770996,216.430603 2116.210205,227.488586   C2096.595703,236.319565 2084.733154,252.780334 2078.036621,272.739624   C2067.564697,303.951233 2067.838135,335.696747 2076.340820,367.181763   C2081.054443,384.636963 2090.232422,399.852051 2105.299561,410.847992   C2118.725586,420.646179 2133.992676,424.604736 2150.276855,424.743958   C2172.884766,424.937347 2192.555420,418.318268 2206.368164,399.010254   C2207.260986,397.762238 2209.302002,397.335510 2211.718262,396.038635   C2211.718262,431.865540 2211.718262,466.289764 2211.718262,500.796265   C2228.499756,500.796265 2244.858643,500.796265 2261.003418,500.796265   C2261.003418,408.030426 2261.003418,315.637390 2261.003418,223.280334   C2244.432129,223.280334 2228.177246,223.280334 2211.739258,223.280334   C2211.739258,230.378220 2211.739258,237.196136 2211.731445,244.923737  M1200.092773,339.261139   C1201.728149,348.251038 1202.660767,357.440521 1205.145508,366.189178   C1210.252808,384.171478 1219.321411,399.856171 1234.784546,411.139374   C1247.451538,420.382233 1261.877075,424.335114 1277.344971,424.663727   C1300.853394,425.163269 1320.841064,417.925049 1334.886108,397.895721   C1335.767334,396.638947 1337.567383,396.026428 1338.940063,395.114105   C1339.552856,396.610016 1340.654663,398.092896 1340.694946,399.604065   C1340.882935,406.675385 1340.778320,413.754456 1340.778320,420.702820   C1357.722412,420.702820 1373.981934,420.702820 1390.150635,420.702820   C1390.150635,328.267761 1390.150635,236.131058 1390.150635,143.743042   C1373.679443,143.743042 1357.419922,143.743042 1340.962646,143.743042   C1340.894775,145.273529 1340.786255,146.585556 1340.785889,147.897614   C1340.776367,178.730774 1340.803467,209.564011 1340.703003,240.396835   C1340.697998,241.914032 1339.596924,243.427658 1339.006348,244.942947   C1337.544922,244.177017 1335.831177,243.681030 1334.669312,242.594696   C1331.153564,239.307739 1328.263062,235.215591 1324.399902,232.458618   C1299.131226,214.425491 1272.109619,215.804337 1245.283447,227.545197   C1225.638184,236.143219 1214.143921,252.988861 1206.994873,272.750946   C1199.306274,294.004150 1198.655640,316.076385 1200.092773,339.261139  M1457.942139,252.452087   C1453.940552,259.134857 1449.019775,265.440613 1446.097290,272.566010   C1433.804688,302.536926 1433.500732,333.298950 1442.927124,363.957672   C1451.661743,392.366333 1470.894897,411.001129 1499.352783,419.749481   C1516.293457,424.957275 1533.644165,425.728699 1551.258667,424.085938   C1581.896973,421.228577 1603.585083,405.674377 1617.819092,378.276306   C1606.953003,371.286896 1596.264404,364.284302 1585.423462,357.526245   C1582.643433,355.793213 1580.657349,357.297241 1579.111450,360.115814   C1574.409302,368.689636 1567.745728,375.457428 1558.473511,378.808899   C1544.438477,383.881927 1530.101562,384.347290 1515.916992,379.298828   C1498.469727,373.089081 1487.627197,355.258759 1487.787109,333.170410   C1489.585083,333.170410 1491.388672,333.170410 1493.192383,333.170410   C1532.523804,333.170410 1571.855347,333.148315 1611.186768,333.201782   C1615.506958,333.207642 1618.988037,332.441956 1618.792603,327.141235   C1618.223877,311.702179 1619.061279,296.022491 1616.602295,280.882996   C1612.130493,253.349823 1596.358398,233.894989 1569.386963,224.831497   C1549.022827,217.988281 1528.126343,217.492401 1507.272949,222.157944   C1487.744385,226.527130 1471.021118,235.972076 1457.942139,252.452087  M1109.207764,227.242889   C1088.540771,219.132477 1067.191040,217.344070 1045.470703,221.192139   C1011.828369,227.152328 987.878967,245.658386 976.396423,278.159698   C966.765076,305.421112 966.681213,333.409454 974.795898,361.132416   C982.580261,387.726837 999.100708,406.934143 1025.162354,417.323364   C1045.360474,425.375214 1066.333740,426.450317 1087.482422,422.937531   C1120.140381,417.513062 1143.576172,399.874817 1156.013062,368.748535   C1164.505493,347.494476 1165.768188,325.280121 1162.842041,302.907654   C1158.371094,268.723541 1142.823975,241.954315 1109.207764,227.242889  M2440.590820,330.929718   C2440.384766,333.920959 2440.323242,336.930511 2439.946533,339.900146   C2438.572998,350.731110 2436.303223,361.303375 2428.676514,369.722443   C2416.699951,382.943390 2401.471924,384.675262 2385.132324,381.224915   C2376.996826,379.506958 2370.607910,374.644165 2368.319336,366.517212   C2366.407715,359.728424 2365.244873,352.499512 2365.192139,345.454712   C2364.902100,306.470337 2365.053467,267.482666 2365.053467,228.496124   C2365.053467,226.735275 2365.053223,224.974426 2365.053223,223.240631   C2348.211426,223.240631 2331.957764,223.240631 2315.284180,223.240631   C2315.284180,225.270248 2315.284180,227.063858 2315.284180,228.857468   C2315.284180,262.012695 2315.216309,295.168152 2315.318359,328.323059   C2315.358398,341.311646 2315.010010,354.368988 2316.183105,367.272797   C2318.865723,396.781189 2333.112061,419.000488 2365.434814,423.572815   C2395.207520,427.784485 2420.823730,421.735626 2437.241455,393.654724   C2437.843018,392.625488 2439.392822,392.150421 2440.500488,391.417053   C2441.239014,392.671844 2442.588379,393.912842 2442.616943,395.183655   C2442.807617,403.637207 2442.715820,412.097137 2442.715820,420.684937   C2458.771729,420.684937 2474.489014,420.684937 2489.993164,420.684937   C2489.993164,354.654846 2489.993164,288.941589 2489.993164,223.286240   C2473.413574,223.286240 2457.161621,223.286240 2440.632080,223.286240   C2440.632080,259.048615 2440.632080,294.523590 2440.590820,330.929718  M845.922363,423.750183   C856.557251,423.860657 867.245422,424.707458 877.816956,423.942474   C908.533264,421.719849 934.629028,400.724823 944.362976,371.516357   C945.334229,368.601868 944.723633,367.434479 942.253235,366.111969   C932.735229,361.016418 923.310547,355.746399 913.848389,350.546417   C907.959534,347.310120 906.927917,347.690033 904.594177,353.925232   C897.716919,372.299377 881.988770,383.020691 862.238647,382.797211   C841.882996,382.566864 827.041565,372.243805 820.926819,352.931671   C814.316711,332.055237 814.757202,310.899353 821.196533,290.037994   C823.834229,281.492615 828.838928,274.190186 836.436890,268.997040   C859.002625,253.573654 890.354553,261.533112 902.836365,286.020050   C904.426941,289.140533 906.416687,290.105469 909.002502,288.315979   C920.183105,280.578796 931.200500,272.605621 942.265686,264.726501   C934.612183,245.629913 921.723755,232.664841 902.713074,225.804916   C881.081543,217.999329 858.959167,217.333954 836.807007,222.143341   C808.407227,228.309113 787.557373,244.663620 775.241760,271.237610   C767.387573,288.185211 764.994385,306.264893 765.296997,324.742920   C765.571533,341.512512 768.093872,357.922272 775.395813,373.210663   C789.433899,402.602814 813.263489,418.618469 845.922363,423.750183  M2702.499512,172.500290   C2702.499512,162.915558 2702.499512,153.330826 2702.499512,143.850769   C2685.531494,143.850769 2669.312012,143.850769 2652.852783,143.850769   C2652.852783,146.028625 2652.852783,147.849640 2652.852783,149.670654   C2652.852783,204.804337 2652.841309,259.938019 2652.859619,315.071686   C2652.865967,334.392975 2652.675537,353.719604 2653.057373,373.034271   C2653.562256,398.575562 2665.548584,415.504089 2687.506836,422.252869   C2691.445312,423.463379 2695.612793,424.244080 2699.721924,424.522156   C2711.200684,425.298859 2722.581299,424.810150 2733.737061,420.285583   C2732.513428,410.084412 2731.293213,400.204010 2730.152588,390.314453   C2729.102051,381.206970 2729.139648,381.202667 2719.992920,382.454651   C2710.628418,383.736420 2703.978760,378.698303 2702.936279,369.363617   C2702.585938,366.228210 2702.517822,363.048340 2702.516846,359.888763   C2702.493652,297.759277 2702.499512,235.629791 2702.499512,172.500290  M2825.237793,424.713684   C2830.988525,423.874084 2836.744873,423.072968 2842.487549,422.181091   C2846.161865,421.610443 2847.713135,419.814178 2847.086426,415.723633   C2845.776611,407.176270 2844.976562,398.550720 2843.974609,389.956390   C2842.690918,378.945557 2843.218994,381.079559 2834.462402,382.346130   C2824.597412,383.772980 2818.264648,379.298157 2816.766602,369.556763   C2816.313721,366.612183 2816.219971,363.588898 2816.218750,360.601562   C2816.189941,290.315460 2816.196533,220.029343 2816.196533,149.743225   C2816.196533,147.793854 2816.196533,145.844482 2816.196533,143.798065   C2799.454590,143.798065 2783.222656,143.798065 2766.602783,143.798065   C2766.602783,145.741333 2766.602783,147.381729 2766.602783,149.022110   C2766.603271,220.307556 2766.595459,291.592987 2766.623047,362.878448   C2766.624756,367.538818 2766.739502,372.210449 2767.071777,376.857513   C2768.768555,400.567932 2780.358154,416.319336 2801.621338,422.250366   C2808.850342,424.266815 2816.721191,423.981812 2825.237793,424.713684  M2547.360107,404.497101   C2547.360107,409.936462 2547.360107,415.375854 2547.360107,420.763062   C2564.256592,420.763062 2580.517822,420.763062 2596.895020,420.763062   C2596.895020,354.817322 2596.895020,289.112335 2596.895020,223.340179   C2580.340088,223.340179 2563.984131,223.340179 2547.360107,223.340179   C2547.360107,283.621735 2547.360107,343.559845 2547.360107,404.497101  M2553.090332,193.467422   C2564.077881,202.196533 2583.835938,200.341858 2592.748291,192.532669   C2602.252441,184.205170 2604.900146,173.526718 2601.720215,161.746292   C2598.425781,149.541489 2589.447754,143.306381 2577.219727,141.310471   C2563.385986,139.052429 2549.859863,145.751572 2544.371826,157.697861   C2538.898193,169.612442 2542.272461,184.214478 2553.090332,193.467422  z" fill="none" opacity="1.000000" stroke="none"/>
<path d=" M640.459351,481.412109   C624.782288,515.169128 599.260742,535.489319 562.538452,541.013306   C557.795837,541.726685 552.941711,541.970398 548.139038,541.972778   C447.151733,542.022400 346.164368,542.044556 245.177094,541.984985   C199.918304,541.958313 158.016449,506.825439 150.045380,462.165192   C148.796967,455.170593 148.094254,447.979462 148.084534,440.877930   C147.957275,347.889801 147.986404,254.901413 148.006104,161.913086   C148.016281,113.925247 185.846664,71.025810 233.482101,64.976974   C237.592377,64.455048 241.749329,64.020386 245.884827,64.018463   C347.871948,63.971054 449.859222,63.892460 551.846130,64.039742   C592.547363,64.098526 631.363586,93.434090 643.405212,132.329895   C646.537903,142.448715 648.147461,152.632416 648.137512,163.225906   C648.049683,256.880737 648.030579,350.535706 648.141785,444.190491   C648.157104,457.077728 645.471008,469.251526 640.459351,481.412109  M398.283417,263.835541   C398.040161,264.803131 397.842682,265.784943 397.547089,266.736267   C382.992981,313.581879 368.425659,360.423370 353.878387,407.271088   C352.769653,410.841736 351.796509,414.454498 350.543610,418.799164   C356.395630,418.799164 361.363617,418.637115 366.314667,418.856842   C369.545837,419.000275 371.108978,417.759796 372.012482,414.684357   C374.918182,404.793701 378.042542,394.967072 381.103973,385.122437   C400.163849,323.832245 419.234070,262.545258 438.280457,201.250870   C439.280334,198.033081 440.093811,194.757355 441.136200,190.995758   C435.529480,190.995758 430.699707,191.223846 425.903473,190.921036   C422.297668,190.693375 420.690918,191.904099 419.614227,195.446869   C412.747986,218.039474 405.623047,240.553452 398.283417,263.835541  M560.095642,283.463867   C528.992859,269.351868 497.890045,255.239883 466.153717,240.840439   C466.153717,247.333084 466.392548,252.829315 466.067230,258.291931   C465.860718,261.759186 467.290253,263.293610 470.277313,264.563446   C495.068481,275.102509 519.808228,285.762665 544.549438,296.418915   C546.127808,297.098755 547.588745,298.051300 550.236877,299.494019   C547.305603,301.034546 545.542114,302.107239 543.667297,302.924561   C519.276550,313.557373 494.860870,324.132904 470.489166,334.808960   C468.934113,335.490112 466.555420,336.812561 466.487793,337.951202   C466.101746,344.451141 466.300415,350.985809 466.300415,358.092743   C480.211700,351.811859 493.231476,345.925476 506.257935,340.053894   C528.548096,330.006714 550.850525,319.986481 573.116272,309.885620   C574.543152,309.238373 576.724060,308.079559 576.808960,307.018982   C577.205933,302.062805 577.700134,296.900360 576.647339,292.146515   C576.220886,290.220978 571.999634,289.037628 569.403015,287.717529   C566.589600,286.287231 563.657166,285.091217 560.095642,283.463867  M327.657623,263.934753   C328.466431,263.006287 329.943817,262.100220 329.975800,261.145721   C330.185852,254.872864 330.084106,248.589554 330.084106,241.505447   C327.838593,242.359741 326.316589,242.848770 324.869049,243.502716   C293.491943,257.677399 262.296326,272.275696 230.642456,285.801819   C221.677521,289.632660 217.226913,293.951019 218.918808,303.904358   C219.429901,306.911102 220.134613,308.580444 222.954010,309.837860   C251.815109,322.709778 280.615814,335.717072 309.444641,348.661530   C316.039886,351.622864 322.678192,354.488251 330.124084,357.761505   C330.124084,351.687653 329.773682,346.689545 330.229767,341.766174   C330.628326,337.463867 328.734772,335.622345 325.100220,334.072632   C301.543243,324.027954 278.052612,313.827332 254.559036,303.634521   C252.225311,302.622040 250.017822,301.318634 247.751740,300.150269   C247.715591,299.600708 247.679459,299.051117 247.643311,298.501526   C274.060394,287.059143 300.477478,275.616760 327.657623,263.934753  z" fill="#F78DA7" opacity="1.000000" stroke="none"/>
<path d=" M1941.699951,338.601929   C1936.865479,351.722046 1932.162720,364.448914 1927.182861,377.925598   C1932.523560,383.602600 1940.533447,384.188110 1948.737061,382.475677   C1953.241333,381.535461 1955.121948,382.490967 1955.816895,386.993683   C1957.285522,396.510040 1959.141602,405.967255 1960.547974,415.491638   C1960.739868,416.790466 1959.606934,419.149994 1958.498413,419.615448   C1955.010254,421.080170 1951.299683,422.457367 1947.571045,422.832794   C1928.938843,424.708862 1911.683228,421.488129 1897.648071,407.900818   C1894.787842,405.131683 1892.044800,405.355133 1889.211426,407.569977   C1876.303223,417.659698 1861.221069,422.040863 1845.318115,423.805481   C1823.041748,426.277313 1801.250366,424.397736 1780.153809,416.015228   C1753.223999,405.314941 1734.791260,378.957977 1733.922974,349.943512   C1733.422241,333.208740 1735.760498,317.337524 1745.834595,303.491241   C1754.562744,291.494690 1766.364502,283.194305 1779.673828,276.966156   C1787.738159,273.192291 1787.752563,273.089111 1782.271118,265.658783   C1773.814087,254.194870 1766.967407,242.142166 1764.508057,227.646759   C1759.802368,199.910751 1772.564819,173.457993 1798.454468,162.471817   C1824.809937,151.288055 1851.689819,151.061951 1877.521606,164.457016   C1893.688110,172.840134 1902.383057,186.774933 1904.224976,205.160736   C1906.057861,223.455185 1901.243164,239.386261 1888.947876,252.985504   C1881.012817,261.762238 1871.142700,267.902130 1860.553101,272.957886   C1857.999756,274.176910 1855.463989,275.468964 1852.816406,276.445831   C1849.030518,277.842743 1848.904907,280.556000 1850.825073,283.110840   C1866.219360,303.591980 1881.771606,323.954376 1897.285522,344.345428   C1897.357422,344.440002 1897.575073,344.423584 1898.911987,344.740021   C1900.589722,337.930573 1902.974976,331.173157 1903.797241,324.230591   C1905.046021,313.687775 1905.364990,303.021973 1905.743042,292.396454   C1905.861084,289.080872 1906.515137,287.650635 1910.168579,287.719940   C1920.997925,287.925507 1931.835571,287.906036 1942.665894,287.727722   C1946.111694,287.670990 1947.218872,288.687775 1947.230957,292.241516   C1947.283691,307.798187 1945.297485,323.082214 1941.699951,338.601929  M1846.797852,353.718414   C1833.144775,336.395905 1819.491821,319.073364 1805.540527,301.372345   C1803.387939,302.962891 1801.452759,304.203094 1799.735352,305.694214   C1791.611206,312.748413 1787.084961,321.608063 1785.648682,332.343018   C1782.977173,352.312225 1792.497192,370.968628 1811.829468,378.171326   C1821.581055,381.804535 1831.630371,382.830994 1841.722168,381.720703   C1848.972046,380.923126 1856.034424,378.421234 1864.418457,376.377899   C1857.951172,368.109283 1852.559937,361.216370 1846.797852,353.718414  M1818.879395,239.581116   C1829.819824,255.447220 1824.886841,254.768768 1842.318970,244.371521   C1842.604248,244.201355 1842.897583,244.041626 1843.168457,243.850555   C1851.599731,237.899490 1857.729248,230.589340 1859.213867,219.814499   C1862.509888,195.893509 1844.390015,189.560608 1829.165527,192.549820   C1819.281006,194.490570 1813.472290,201.307419 1811.776855,211.108154   C1809.983521,221.474716 1813.425659,230.356873 1818.879395,239.581116  z" fill="#F78EA7" opacity="1.000000" stroke="none"/>
<path d=" M2211.735352,244.468903   C2211.739258,237.196136 2211.739258,230.378220 2211.739258,223.280334   C2228.177246,223.280334 2244.432129,223.280334 2261.003418,223.280334   C2261.003418,315.637390 2261.003418,408.030426 2261.003418,500.796265   C2244.858643,500.796265 2228.499756,500.796265 2211.718262,500.796265   C2211.718262,466.289764 2211.718262,431.865540 2211.718262,396.038635   C2209.302002,397.335510 2207.260986,397.762238 2206.368164,399.010254   C2192.555420,418.318268 2172.884766,424.937347 2150.276855,424.743958   C2133.992676,424.604736 2118.725586,420.646179 2105.299561,410.847992   C2090.232422,399.852051 2081.054443,384.636963 2076.340820,367.181763   C2067.838135,335.696747 2067.564697,303.951233 2078.036621,272.739624   C2084.733154,252.780334 2096.595703,236.319565 2116.210205,227.488586   C2140.770996,216.430603 2165.898926,215.043167 2189.897949,229.144073   C2196.237793,232.869354 2200.958740,239.473907 2206.107422,245.047882   C2208.413574,247.544571 2209.917480,248.465454 2211.735352,244.468903  M2207.392822,353.820496   C2213.891602,332.524475 2214.083740,311.137329 2206.952637,290.072296   C2200.458740,270.890656 2184.721436,260.724274 2164.831299,261.647949   C2143.399902,262.643188 2130.328857,272.867371 2125.021729,293.398041   C2120.279297,311.743561 2120.315186,330.315308 2124.375244,348.750031   C2126.625977,358.968658 2131.138184,368.215424 2139.870117,374.748688   C2162.824951,391.923645 2196.234375,381.882050 2207.392822,353.820496  z" fill="#010101" opacity="1.000000" stroke="none"/>
<path d=" M1200.063965,338.795349   C1198.655640,316.076385 1199.306274,294.004150 1206.994873,272.750946   C1214.143921,252.988861 1225.638184,236.143219 1245.283447,227.545197   C1272.109619,215.804337 1299.131226,214.425491 1324.399902,232.458618   C1328.263062,235.215591 1331.153564,239.307739 1334.669312,242.594696   C1335.831177,243.681030 1337.544922,244.177017 1339.006348,244.942947   C1339.596924,243.427658 1340.697998,241.914032 1340.703003,240.396835   C1340.803467,209.564011 1340.776367,178.730774 1340.785889,147.897614   C1340.786255,146.585556 1340.894775,145.273529 1340.962646,143.743042   C1357.419922,143.743042 1373.679443,143.743042 1390.150635,143.743042   C1390.150635,236.131058 1390.150635,328.267761 1390.150635,420.702820   C1373.981934,420.702820 1357.722412,420.702820 1340.778320,420.702820   C1340.778320,413.754456 1340.882935,406.675385 1340.694946,399.604065   C1340.654663,398.092896 1339.552856,396.610016 1338.939941,395.114136   C1337.567383,396.026428 1335.767334,396.638947 1334.886108,397.895721   C1320.841064,417.925049 1300.853394,425.163269 1277.344971,424.663727   C1261.877075,424.335114 1247.451538,420.382233 1234.784546,411.139374   C1219.321411,399.856171 1210.252808,384.171478 1205.145508,366.189178   C1202.660767,357.440521 1201.728149,348.251038 1200.063965,338.795349  M1256.406128,286.031158   C1248.852905,307.220795 1248.696411,328.828461 1253.993774,350.362640   C1259.175781,371.427643 1273.718872,382.423065 1294.980957,382.800476   C1315.218628,383.159698 1330.995483,371.867126 1336.959473,351.875244   C1342.956299,331.773163 1342.877930,311.381195 1336.645264,291.378815   C1331.799316,275.827698 1321.300537,265.564606 1304.855225,262.348267   C1283.469604,258.165710 1264.948853,267.081696 1256.406128,286.031158  z" fill="#010101" opacity="1.000000" stroke="none"/>
<path d=" M1458.156372,252.168182   C1471.021118,235.972076 1487.744385,226.527130 1507.272949,222.157944   C1528.126343,217.492401 1549.022827,217.988281 1569.386963,224.831497   C1596.358398,233.894989 1612.130493,253.349823 1616.602295,280.882996   C1619.061279,296.022491 1618.223877,311.702179 1618.792603,327.141235   C1618.988037,332.441956 1615.506958,333.207642 1611.186768,333.201782   C1571.855347,333.148315 1532.523804,333.170410 1493.192383,333.170410   C1491.388672,333.170410 1489.585083,333.170410 1487.787109,333.170410   C1487.627197,355.258759 1498.469727,373.089081 1515.916992,379.298828   C1530.101562,384.347290 1544.438477,383.881927 1558.473511,378.808899   C1567.745728,375.457428 1574.409302,368.689636 1579.111450,360.115814   C1580.657349,357.297241 1582.643433,355.793213 1585.423462,357.526245   C1596.264404,364.284302 1606.953003,371.286896 1617.819092,378.276306   C1603.585083,405.674377 1581.896973,421.228577 1551.258667,424.085938   C1533.644165,425.728699 1516.293457,424.957275 1499.352783,419.749481   C1470.894897,411.001129 1451.661743,392.366333 1442.927124,363.957672   C1433.500732,333.298950 1433.804688,302.536926 1446.097290,272.566010   C1449.019775,265.440613 1453.940552,259.134857 1458.156372,252.168182  M1562.458496,301.164215   C1565.556274,301.164215 1568.654053,301.164215 1571.744751,301.164215   C1571.359741,272.518250 1558.015015,257.973022 1532.691040,258.021790   C1505.601318,258.073944 1491.613647,275.887299 1489.065674,301.164215   C1513.223389,301.164215 1537.347656,301.164215 1562.458496,301.164215  z" fill="#010101" opacity="1.000000" stroke="none"/>
<path d=" M1109.531494,227.445007   C1142.823975,241.954315 1158.371094,268.723541 1162.842041,302.907654   C1165.768188,325.280121 1164.505493,347.494476 1156.013062,368.748535   C1143.576172,399.874817 1120.140381,417.513062 1087.482422,422.937531   C1066.333740,426.450317 1045.360474,425.375214 1025.162354,417.323364   C999.100708,406.934143 982.580261,387.726837 974.795898,361.132416   C966.681213,333.409454 966.765076,305.421112 976.396423,278.159698   C987.878967,245.658386 1011.828369,227.152328 1045.470703,221.192139   C1067.191040,217.344070 1088.540771,219.132477 1109.531494,227.445007  M1088.449951,378.094360   C1099.535034,372.615723 1105.703735,363.186462 1108.930054,351.729706   C1114.280396,332.731079 1114.199707,313.484772 1109.610229,294.418823   C1105.438232,277.087616 1094.905273,265.313141 1076.694824,262.497040   C1051.182373,258.551697 1030.467896,267.208649 1023.585083,295.264679   C1018.989014,313.999664 1019.094238,332.952454 1024.265991,351.587128   C1028.698242,367.557404 1038.671021,378.389709 1055.494385,381.671021   C1066.529785,383.823456 1077.359009,382.954590 1088.449951,378.094360  z" fill="#010101" opacity="1.000000" stroke="none"/>
<path d=" M2440.611328,330.464172   C2440.632080,294.523590 2440.632080,259.048615 2440.632080,223.286240   C2457.161621,223.286240 2473.413574,223.286240 2489.993164,223.286240   C2489.993164,288.941589 2489.993164,354.654846 2489.993164,420.684937   C2474.489014,420.684937 2458.771729,420.684937 2442.715820,420.684937   C2442.715820,412.097137 2442.807617,403.637207 2442.616943,395.183655   C2442.588379,393.912842 2441.239014,392.671844 2440.500488,391.417053   C2439.392822,392.150421 2437.843018,392.625488 2437.241455,393.654724   C2420.823730,421.735626 2395.207520,427.784485 2365.434814,423.572815   C2333.112061,419.000488 2318.865723,396.781189 2316.183105,367.272797   C2315.010010,354.368988 2315.358398,341.311646 2315.318359,328.323059   C2315.216309,295.168152 2315.284180,262.012695 2315.284180,228.857468   C2315.284180,227.063858 2315.284180,225.270248 2315.284180,223.240631   C2331.957764,223.240631 2348.211426,223.240631 2365.053223,223.240631   C2365.053223,224.974426 2365.053467,226.735275 2365.053467,228.496124   C2365.053467,267.482666 2364.902100,306.470337 2365.192139,345.454712   C2365.244873,352.499512 2366.407715,359.728424 2368.319336,366.517212   C2370.607910,374.644165 2376.996826,379.506958 2385.132324,381.224915   C2401.471924,384.675262 2416.699951,382.943390 2428.676514,369.722443   C2436.303223,361.303375 2438.572998,350.731110 2439.946533,339.900146   C2440.323242,336.930511 2440.384766,333.920959 2440.611328,330.464172  z" fill="#010101" opacity="1.000000" stroke="none"/>
<path d=" M845.484375,423.646301   C813.263489,418.618469 789.433899,402.602814 775.395813,373.210663   C768.093872,357.922272 765.571533,341.512512 765.296997,324.742920   C764.994385,306.264893 767.387573,288.185211 775.241760,271.237610   C787.557373,244.663620 808.407227,228.309113 836.807007,222.143341   C858.959167,217.333954 881.081543,217.999329 902.713074,225.804916   C921.723755,232.664841 934.612183,245.629913 942.265686,264.726501   C931.200500,272.605621 920.183105,280.578796 909.002502,288.315979   C906.416687,290.105469 904.426941,289.140533 902.836365,286.020050   C890.354553,261.533112 859.002625,253.573654 836.436890,268.997040   C828.838928,274.190186 823.834229,281.492615 821.196533,290.037994   C814.757202,310.899353 814.316711,332.055237 820.926819,352.931671   C827.041565,372.243805 841.882996,382.566864 862.238647,382.797211   C881.988770,383.020691 897.716919,372.299377 904.594177,353.925232   C906.927917,347.690033 907.959534,347.310120 913.848389,350.546417   C923.310547,355.746399 932.735229,361.016418 942.253235,366.111969   C944.723633,367.434479 945.334229,368.601868 944.362976,371.516357   C934.629028,400.724823 908.533264,421.719849 877.816956,423.942474   C867.245422,424.707458 856.557251,423.860657 845.484375,423.646301  z" fill="#020202" opacity="1.000000" stroke="none"/>
<path d=" M2702.499512,173.000305   C2702.499512,235.629791 2702.493652,297.759277 2702.516846,359.888763   C2702.517822,363.048340 2702.585938,366.228210 2702.936279,369.363617   C2703.978760,378.698303 2710.628418,383.736420 2719.992920,382.454651   C2729.139648,381.202667 2729.102051,381.206970 2730.152588,390.314453   C2731.293213,400.204010 2732.513428,410.084412 2733.737061,420.285583   C2722.581299,424.810150 2711.200684,425.298859 2699.721924,424.522156   C2695.612793,424.244080 2691.445312,423.463379 2687.506836,422.252869   C2665.548584,415.504089 2653.562256,398.575562 2653.057373,373.034271   C2652.675537,353.719604 2652.865967,334.392975 2652.859619,315.071686   C2652.841309,259.938019 2652.852783,204.804337 2652.852783,149.670654   C2652.852783,147.849640 2652.852783,146.028625 2652.852783,143.850769   C2669.312012,143.850769 2685.531494,143.850769 2702.499512,143.850769   C2702.499512,153.330826 2702.499512,162.915558 2702.499512,173.000305  z" fill="#000000" opacity="1.000000" stroke="none"/>
<path d=" M2824.768311,424.731079   C2816.721191,423.981812 2808.850342,424.266815 2801.621338,422.250366   C2780.358154,416.319336 2768.768555,400.567932 2767.071777,376.857513   C2766.739502,372.210449 2766.624756,367.538818 2766.623047,362.878448   C2766.595459,291.592987 2766.603271,220.307556 2766.602783,149.022110   C2766.602783,147.381729 2766.602783,145.741333 2766.602783,143.798065   C2783.222656,143.798065 2799.454590,143.798065 2816.196533,143.798065   C2816.196533,145.844482 2816.196533,147.793854 2816.196533,149.743225   C2816.196533,220.029343 2816.189941,290.315460 2816.218750,360.601562   C2816.219971,363.588898 2816.313721,366.612183 2816.766602,369.556763   C2818.264648,379.298157 2824.597412,383.772980 2834.462402,382.346130   C2843.218994,381.079559 2842.690918,378.945557 2843.974609,389.956390   C2844.976562,398.550720 2845.776611,407.176270 2847.086426,415.723633   C2847.713135,419.814178 2846.161865,421.610443 2842.487549,422.181091   C2836.744873,423.072968 2830.988525,423.874084 2824.768311,424.731079  z" fill="#000000" opacity="1.000000" stroke="none"/>
<path d=" M2547.360107,403.997498   C2547.360107,343.559845 2547.360107,283.621735 2547.360107,223.340179   C2563.984131,223.340179 2580.340088,223.340179 2596.895020,223.340179   C2596.895020,289.112335 2596.895020,354.817322 2596.895020,420.763062   C2580.517822,420.763062 2564.256592,420.763062 2547.360107,420.763062   C2547.360107,415.375854 2547.360107,409.936462 2547.360107,403.997498  z" fill="#020202" opacity="1.000000" stroke="none"/>
<path d=" M2552.811035,193.239746   C2542.272461,184.214478 2538.898193,169.612442 2544.371826,157.697861   C2549.859863,145.751572 2563.385986,139.052429 2577.219727,141.310471   C2589.447754,143.306381 2598.425781,149.541489 2601.720215,161.746292   C2604.900146,173.526718 2602.252441,184.205170 2592.748291,192.532669   C2583.835938,200.341858 2564.077881,202.196533 2552.811035,193.239746  z" fill="#020202" opacity="1.000000" stroke="none"/>
<path d=" M398.433350,263.464417   C405.623047,240.553452 412.747986,218.039474 419.614227,195.446869   C420.690918,191.904099 422.297668,190.693375 425.903473,190.921036   C430.699707,191.223846 435.529480,190.995758 441.136200,190.995758   C440.093811,194.757355 439.280334,198.033081 438.280457,201.250870   C419.234070,262.545258 400.163849,323.832245 381.103973,385.122437   C378.042542,394.967072 374.918182,404.793701 372.012482,414.684357   C371.108978,417.759796 369.545837,419.000275 366.314667,418.856842   C361.363617,418.637115 356.395630,418.799164 350.543610,418.799164   C351.796509,414.454498 352.769653,410.841736 353.878387,407.271088   C368.425659,360.423370 382.992981,313.581879 397.547089,266.736267   C397.842682,265.784943 398.040161,264.803131 398.433350,263.464417  z" fill="#FFFDFE" opacity="1.000000" stroke="none"/>
<path d=" M560.436157,283.628418   C563.657166,285.091217 566.589600,286.287231 569.403015,287.717529   C571.999634,289.037628 576.220886,290.220978 576.647339,292.146515   C577.700134,296.900360 577.205933,302.062805 576.808960,307.018982   C576.724060,308.079559 574.543152,309.238373 573.116272,309.885620   C550.850525,319.986481 528.548096,330.006714 506.257935,340.053894   C493.231476,345.925476 480.211700,351.811859 466.300415,358.092743   C466.300415,350.985809 466.101746,344.451141 466.487793,337.951202   C466.555420,336.812561 468.934113,335.490112 470.489166,334.808960   C494.860870,324.132904 519.276550,313.557373 543.667297,302.924561   C545.542114,302.107239 547.305603,301.034546 550.236877,299.494019   C547.588745,298.051300 546.127808,297.098755 544.549438,296.418915   C519.808228,285.762665 495.068481,275.102509 470.277313,264.563446   C467.290253,263.293610 465.860718,261.759186 466.067230,258.291931   C466.392548,252.829315 466.153717,247.333084 466.153717,240.840439   C497.890045,255.239883 528.992859,269.351868 560.436157,283.628418  z" fill="#FFFDFE" opacity="1.000000" stroke="none"/>
<path d=" M327.276093,264.054565   C300.477478,275.616760 274.060394,287.059143 247.643311,298.501526   C247.679459,299.051117 247.715591,299.600708 247.751740,300.150269   C250.017822,301.318634 252.225311,302.622040 254.559036,303.634521   C278.052612,313.827332 301.543243,324.027954 325.100220,334.072632   C328.734772,335.622345 330.628326,337.463867 330.229767,341.766174   C329.773682,346.689545 330.124084,351.687653 330.124084,357.761505   C322.678192,354.488251 316.039886,351.622864 309.444641,348.661530   C280.615814,335.717072 251.815109,322.709778 222.954010,309.837860   C220.134613,308.580444 219.429901,306.911102 218.918808,303.904358   C217.226913,293.951019 221.677521,289.632660 230.642456,285.801819   C262.296326,272.275696 293.491943,257.677399 324.869049,243.502716   C326.316589,242.848770 327.838593,242.359741 330.084106,241.505447   C330.084106,248.589554 330.185852,254.872864 329.975800,261.145721   C329.943817,262.100220 328.466431,263.006287 327.276093,264.054565  z" fill="#FFFEFE" opacity="1.000000" stroke="none"/>
<path d=" M1846.983276,354.020935   C1852.559937,361.216370 1857.951172,368.109283 1864.418457,376.377899   C1856.034424,378.421234 1848.972046,380.923126 1841.722168,381.720703   C1831.630371,382.830994 1821.581055,381.804535 1811.829468,378.171326   C1792.497192,370.968628 1782.977173,352.312225 1785.648682,332.343018   C1787.084961,321.608063 1791.611206,312.748413 1799.735352,305.694214   C1801.452759,304.203094 1803.387939,302.962891 1805.540527,301.372345   C1819.491821,319.073364 1833.144775,336.395905 1846.983276,354.020935  z" fill="#FFFEFE" opacity="1.000000" stroke="none"/>
<path d=" M1818.695068,239.263733   C1813.425659,230.356873 1809.983521,221.474716 1811.776855,211.108154   C1813.472290,201.307419 1819.281006,194.490570 1829.165527,192.549820   C1844.390015,189.560608 1862.509888,195.893509 1859.213867,219.814499   C1857.729248,230.589340 1851.599731,237.899490 1843.168457,243.850555   C1842.897583,244.041626 1842.604248,244.201355 1842.318970,244.371521   C1824.886841,254.768768 1829.819824,255.447220 1818.695068,239.263733  z" fill="#FFFEFE" opacity="1.000000" stroke="none"/>
<path d=" M2207.245850,354.184082   C2196.234375,381.882050 2162.824951,391.923645 2139.870117,374.748688   C2131.138184,368.215424 2126.625977,358.968658 2124.375244,348.750031   C2120.315186,330.315308 2120.279297,311.743561 2125.021729,293.398041   C2130.328857,272.867371 2143.399902,262.643188 2164.831299,261.647949   C2184.721436,260.724274 2200.458740,270.890656 2206.952637,290.072296   C2214.083740,311.137329 2213.891602,332.524475 2207.245850,354.184082  z" fill="#FEFEFE" opacity="1.000000" stroke="none"/>
<path d=" M1256.591309,285.696655   C1264.948853,267.081696 1283.469604,258.165710 1304.855225,262.348267   C1321.300537,265.564606 1331.799316,275.827698 1336.645264,291.378815   C1342.877930,311.381195 1342.956299,331.773163 1336.959473,351.875244   C1330.995483,371.867126 1315.218628,383.159698 1294.980957,382.800476   C1273.718872,382.423065 1259.175781,371.427643 1253.993774,350.362640   C1248.696411,328.828461 1248.852905,307.220795 1256.591309,285.696655  z" fill="#FEFEFE" opacity="1.000000" stroke="none"/>
<path d=" M1561.965088,301.164215   C1537.347656,301.164215 1513.223389,301.164215 1489.065674,301.164215   C1491.613647,275.887299 1505.601318,258.073944 1532.691040,258.021790   C1558.015015,257.973022 1571.359741,272.518250 1571.744751,301.164215   C1568.654053,301.164215 1565.556274,301.164215 1561.965088,301.164215  z" fill="#FEFEFE" opacity="1.000000" stroke="none"/>
<path d=" M1088.114136,378.273682   C1077.359009,382.954590 1066.529785,383.823456 1055.494385,381.671021   C1038.671021,378.389709 1028.698242,367.557404 1024.265991,351.587128   C1019.094238,332.952454 1018.989014,313.999664 1023.585083,295.264679   C1030.467896,267.208649 1051.182373,258.551697 1076.694824,262.497040   C1094.905273,265.313141 1105.438232,277.087616 1109.610229,294.418823   C1114.199707,313.484772 1114.280396,332.731079 1108.930054,351.729706   C1105.703735,363.186462 1099.535034,372.615723 1088.114136,378.273682  z" fill="#FEFEFE" opacity="1.000000" stroke="none"/>
</svg>