<svg viewBox="0 0 100 100" xmlns="http://www.w3.org/2000/svg">
  <defs>
    <linearGradient id="gradient" x1="0%" y1="0%" x2="100%" y2="100%">
      <stop offset="0%" style="stop-color:#667eea;stop-opacity:1" />
      <stop offset="100%" style="stop-color:#764ba2;stop-opacity:1" />
    </linearGradient>
    <linearGradient id="textGradient" x1="0%" y1="0%" x2="100%" y2="0%">
      <stop offset="0%" style="stop-color:#4f46e5;stop-opacity:1" />
      <stop offset="100%" style="stop-color:#06b6d4;stop-opacity:1" />
    </linearGradient>
  </defs>
  
  <!-- Background circle -->
  <circle cx="50" cy="50" r="45" fill="url(#gradient)" stroke="none"/>
  
  <!-- AI brain/circuit pattern -->
  <g stroke="#ffffff" stroke-width="1.5" fill="none" opacity="0.3">
    <circle cx="35" cy="25" r="2" fill="#ffffff"/>
    <circle cx="65" cy="25" r="2" fill="#ffffff"/>
    <circle cx="50" cy="35" r="2" fill="#ffffff"/>
    <circle cx="25" cy="45" r="2" fill="#ffffff"/>
    <circle cx="75" cy="45" r="2" fill="#ffffff"/>
    
    <!-- Connecting lines -->
    <path d="M35,25 L50,35 L65,25"/>
    <path d="M25,45 L35,25"/>
    <path d="M75,45 L65,25"/>
    <path d="M25,45 L50,35 L75,45"/>
  </g>
  
  <!-- Document/blog icon -->
  <rect x="30" y="40" width="28" height="35" rx="3" fill="#ffffff" opacity="0.95"/>
  
  <!-- Text lines -->
  <rect x="34" y="48" width="20" height="2" rx="1" fill="url(#textGradient)"/>
  <rect x="34" y="53" width="16" height="2" rx="1" fill="url(#textGradient)" opacity="0.7"/>
  <rect x="34" y="58" width="18" height="2" rx="1" fill="url(#textGradient)" opacity="0.5"/>
  <rect x="34" y="63" width="14" height="2" rx="1" fill="url(#textGradient)" opacity="0.7"/>
  
  <!-- Speed/fast indicator - lightning bolt -->
  <path d="M62,50 L68,60 L65,60 L67,70 L61,60 L64,60 Z" fill="#fbbf24" stroke="none"/>
  
  <!-- AI chip/processor symbol -->
  <rect x="60" y="30" width="12" height="12" rx="2" fill="#ffffff" opacity="0.9"/>
  <rect x="62" y="32" width="8" height="8" rx="1" fill="url(#gradient)"/>
  <circle cx="66" cy="36" r="1" fill="#ffffff"/>
  
</svg>